<svg width="212" height="230" viewBox="0 0 212 230" fill="none" xmlns="http://www.w3.org/2000/svg">
<path d="M38.3484 147.031C-14.0993 104.237 5.72021 62.8441 1.12821 5.86578C0.915232 3.22315 3.17378 1.02306 5.77609 1.53035C37.0484 7.62649 89.8504 32.0924 101.179 92.0304C106.295 119.097 103.698 156.2 103.649 202.188C103.647 203.516 101.945 204.07 101.149 203.006C91.6123 190.258 88.2818 187.773 38.3484 147.031Z" fill="url(#paint0_linear_1_5751)"/>
<path d="M35.1546 142.522C-9.80635 105.645 5.1984 53.9539 3.38894 7.8157C3.28749 5.22898 5.52091 3.14019 8.05736 3.65833C37.3725 9.64681 88.9527 34.9374 99.4353 90.3973C104.155 115.367 103.816 158.486 103.886 201.439C103.888 202.797 102.101 203.354 101.299 202.257C91.0655 188.273 78.0623 177.715 35.1546 142.522Z" fill="url(#paint1_linear_1_5751)"/>
<g opacity="0.6">
<path d="M103.906 202.316L103.781 153.211C103.764 146.637 102.347 140.064 99.1324 134.328C61.625 67.3909 3.40502 81.8344 3.40502 81.8344C3.40502 81.8344 4.24618 118.641 34.4915 142.378C51.7853 155.951 56.9177 161.707 74.2077 175.284C87.9869 186.104 96.9389 197.312 101.135 203.171C101.949 204.307 103.91 203.713 103.906 202.316Z" fill="url(#paint2_linear_1_5751)"/>
<path d="M103.906 202.316L103.781 153.211C103.764 146.637 102.347 140.064 99.1324 134.328C61.625 67.3909 3.40502 81.8344 3.40502 81.8344C3.40502 81.8344 4.24618 118.641 34.4915 142.378C51.7853 155.951 56.9177 161.707 74.2077 175.284C87.9869 186.104 96.9389 197.312 101.135 203.171C101.949 204.307 103.91 203.713 103.906 202.316Z" fill="url(#paint3_radial_1_5751)"/>
</g>
<path d="M102.092 141.27C85.7659 106.042 50.1729 75.5021 9.58147 81.1534C8.9023 81.239 8.18591 81.0565 7.52087 81.1598C8.18609 81.0573 8.90367 81.243 9.58302 81.1587C49.4415 76.5876 85.2399 107.001 99.8512 142.325C100.73 144.264 103.03 149.131 103.03 149.131L102.395 145.034C102.395 145.034 103.063 143.199 102.092 141.27Z" fill="url(#paint4_linear_1_5751)"/>
<path d="M102.767 140.802C86.4412 105.575 50.8567 75.4982 10.2652 81.1495C9.58604 81.2352 8.86965 81.0526 8.20461 81.156C8.86983 81.0535 9.58742 81.2392 10.2668 81.1548C50.9885 75.5967 85.9151 106.533 100.526 141.857C101.405 143.796 103.706 148.663 103.706 148.663L103.07 144.566C103.07 144.566 103.738 142.731 102.767 140.802Z" fill="#3F3F3F"/>
<path d="M1.39453 5.86676C1.18329 3.2242 3.44177 1.02454 6.04395 1.5318C37.3163 7.62809 90.1183 32.0942 101.447 92.0318C106.554 119.047 104.725 157.605 104.713 203.568C104.713 204.921 102.96 205.453 102.192 204.339C101.722 203.657 101.266 203.001 100.819 202.365C98.7201 199.491 95.637 195.561 91.5615 191.118C83.8722 183.316 70.7588 172.682 38.8799 147.287C-14.3526 104.881 5.95767 62.8816 1.39453 5.86676Z" fill="url(#paint5_radial_1_5751)"/>
<path d="M172.532 146.163C223.783 106.687 208.232 65.4247 210.217 4.62979C210.283 2.5993 208.88 0.793847 206.848 0.819626C184.042 1.10904 118.626 31.8568 111.365 92.4764C107.933 121.137 106.722 156.631 107.83 202.673C107.86 203.924 109.405 204.479 110.211 203.522C121.691 189.896 123.373 184.027 172.532 146.163Z" fill="url(#paint6_radial_1_5751)"/>
<path d="M172.532 146.163C223.783 106.687 208.232 65.4247 210.217 4.62979C210.283 2.5993 208.88 0.793847 206.848 0.819626C184.042 1.10904 118.626 31.8568 111.365 92.4764C107.933 121.137 106.722 156.631 107.83 202.673C107.86 203.924 109.405 204.479 110.211 203.522C121.691 189.896 123.373 184.027 172.532 146.163Z" fill="url(#paint7_radial_1_5751)"/>
<path d="M176.976 140.977C221.937 104.099 206.932 52.4085 208.742 6.27035C208.843 3.68363 206.61 1.59484 204.073 2.11298C174.758 8.10146 123.178 33.3921 112.696 88.8519C107.976 113.822 108.315 156.941 108.245 199.894C108.242 201.252 110.029 201.808 110.832 200.712C121.065 186.728 134.069 176.17 176.976 140.977Z" fill="url(#paint8_linear_1_5751)"/>
<path d="M108.231 201.239L108.358 151.665C108.375 145.092 109.792 138.518 113.006 132.782C150.514 65.8455 208.734 80.289 208.734 80.289C208.734 80.289 207.587 117.937 177.342 141.675C160.048 155.247 156.261 158.167 138.847 172.774C124.988 184.399 115.276 196.287 110.876 202.104C110.056 203.188 108.228 202.598 108.231 201.239Z" fill="url(#paint9_linear_1_5751)"/>
<path d="M108.231 201.239L108.358 151.665C108.375 145.092 109.792 138.518 113.006 132.782C150.514 65.8455 208.734 80.289 208.734 80.289C208.734 80.289 207.587 117.937 177.342 141.675C160.048 155.247 156.261 158.167 138.847 172.774C124.988 184.399 115.276 196.287 110.876 202.104C110.056 203.188 108.228 202.598 108.231 201.239Z" fill="url(#paint10_radial_1_5751)"/>
<path d="M110.048 139.724C126.375 104.497 161.968 73.9567 202.559 79.608C203.238 79.6936 203.955 79.5111 204.62 79.6144C203.955 79.5119 203.237 79.6976 202.558 79.6132C162.699 75.0422 126.901 105.456 112.289 140.78C111.411 142.718 109.11 147.586 109.11 147.586L109.746 143.489C109.746 143.489 109.078 141.653 110.048 139.724Z" fill="url(#paint11_linear_1_5751)"/>
<path d="M109.986 138.844C126.312 103.617 161.277 73.9503 201.869 79.6016C202.548 79.6872 203.264 79.5047 203.929 79.608C203.264 79.5055 202.546 79.6912 201.867 79.6068C161.145 74.0487 126.219 104.985 111.608 140.309C110.729 142.248 108.428 147.115 108.428 147.115L108.427 143.442C108.427 143.442 109.015 140.773 109.986 138.844Z" fill="url(#paint12_linear_1_5751)"/>
<g style="mix-blend-mode:multiply">
<mask id="mask0_1_5751" style="mask-type:alpha" maskUnits="userSpaceOnUse" x="1" y="0" width="210" height="205">
<path d="M38.3484 147.031C-14.0993 104.237 5.72021 62.8436 1.12821 5.86529C0.915232 3.22266 3.17378 1.02257 5.77609 1.52986C37.0484 7.626 89.8504 32.092 101.179 92.0299C106.295 119.097 103.698 156.2 103.649 202.188C103.647 203.515 101.945 204.069 101.149 203.006C91.6123 190.258 88.2818 187.773 38.3484 147.031Z" fill="url(#paint13_linear_1_5751)"/>
<path d="M35.1546 142.522C-9.80635 105.644 5.1984 53.9534 3.38894 7.81521C3.28749 5.22849 5.52091 3.1397 8.05736 3.65784C37.3725 9.64632 88.9527 34.9369 99.4353 90.3968C104.155 115.366 103.816 158.486 103.886 201.438C103.888 202.797 102.101 203.353 101.299 202.257C91.0655 188.272 78.0623 177.715 35.1546 142.522Z" fill="url(#paint14_linear_1_5751)"/>
<g opacity="0.6">
<path d="M103.906 202.317L103.781 153.211C103.764 146.638 102.347 140.064 99.1324 134.328C61.625 67.3914 3.40502 81.8349 3.40502 81.8349C3.40502 81.8349 4.24618 118.641 34.4915 142.378C51.7853 155.951 56.9177 161.707 74.2077 175.285C87.9869 186.105 96.9389 197.312 101.135 203.172C101.949 204.307 103.91 203.713 103.906 202.317Z" fill="url(#paint15_linear_1_5751)"/>
<path d="M103.906 202.317L103.781 153.211C103.764 146.638 102.347 140.064 99.1324 134.328C61.625 67.3914 3.40502 81.8349 3.40502 81.8349C3.40502 81.8349 4.24618 118.641 34.4915 142.378C51.7853 155.951 56.9177 161.707 74.2077 175.285C87.9869 186.105 96.9389 197.312 101.135 203.172C101.949 204.307 103.91 203.713 103.906 202.317Z" fill="url(#paint16_radial_1_5751)"/>
</g>
<path d="M102.092 141.269C85.7659 106.042 50.1729 75.5015 9.58147 81.1528C8.9023 81.2385 8.18591 81.0559 7.52087 81.1593C8.18609 81.0568 8.90367 81.2425 9.58302 81.1581C49.4415 76.5871 85.2399 107.001 99.8512 142.324C100.73 144.263 103.03 149.13 103.03 149.13L102.395 145.033C102.395 145.033 103.063 143.198 102.092 141.269Z" fill="url(#paint17_linear_1_5751)"/>
<path d="M102.767 140.802C86.4412 105.575 50.8567 75.4987 10.2652 81.15C9.58604 81.2357 8.86965 81.0531 8.20461 81.1564C8.86983 81.054 9.58742 81.2396 10.2668 81.1553C50.9885 75.5972 85.9151 106.534 100.526 141.858C101.405 143.796 103.706 148.664 103.706 148.664L103.07 144.567C103.07 144.567 103.738 142.731 102.767 140.802Z" fill="#3F3F3F"/>
<path d="M1.39453 5.86823C1.18328 3.22566 3.44177 1.026 6.04395 1.53326C37.3163 7.62955 90.1183 32.0956 101.447 92.0333C106.554 119.049 104.725 157.606 104.713 203.569C104.713 204.922 102.96 205.455 102.192 204.341C101.709 203.639 101.24 202.965 100.781 202.313C98.6852 199.446 95.6192 195.543 91.5752 191.133C83.8877 183.33 70.7775 172.698 38.8799 147.288C-14.3525 104.882 5.95767 62.8831 1.39453 5.86823Z" fill="url(#paint18_radial_1_5751)"/>
<path d="M172.532 146.165C223.783 106.688 208.232 65.4262 210.217 4.63126C210.283 2.60076 208.88 0.795312 206.848 0.821091C184.042 1.1105 118.626 31.8582 111.365 92.4778C107.933 121.138 106.722 156.633 107.83 202.675C107.86 203.925 109.405 204.481 110.211 203.524C121.691 189.898 123.373 184.029 172.532 146.165Z" fill="url(#paint19_radial_1_5751)"/>
<path d="M172.532 146.165C223.783 106.688 208.232 65.4262 210.217 4.63126C210.283 2.60076 208.88 0.795312 206.848 0.821091C184.042 1.1105 118.626 31.8582 111.365 92.4778C107.933 121.138 106.722 156.633 107.83 202.675C107.86 203.925 109.405 204.481 110.211 203.524C121.691 189.898 123.373 184.029 172.532 146.165Z" fill="url(#paint20_radial_1_5751)"/>
<path d="M176.976 140.977C221.937 104.1 206.932 52.409 208.742 6.27084C208.843 3.68412 206.61 1.59533 204.073 2.11347C174.758 8.10195 123.178 33.3926 112.696 88.8524C107.976 113.822 108.315 156.942 108.245 199.894C108.242 201.253 110.029 201.809 110.832 200.712C121.065 186.728 134.069 176.17 176.976 140.977Z" fill="url(#paint21_linear_1_5751)"/>
<path d="M108.231 201.24L108.358 151.667C108.375 145.094 109.792 138.52 113.006 132.784C150.514 65.847 208.734 80.2905 208.734 80.2905C208.734 80.2905 207.587 117.939 177.342 141.676C160.048 155.249 156.261 158.169 138.847 172.776C124.988 184.401 115.276 196.288 110.876 202.105C110.056 203.189 108.228 202.599 108.231 201.24Z" fill="url(#paint22_linear_1_5751)"/>
<path d="M108.231 201.24L108.358 151.667C108.375 145.094 109.792 138.52 113.006 132.784C150.514 65.847 208.734 80.2905 208.734 80.2905C208.734 80.2905 207.587 117.939 177.342 141.676C160.048 155.249 156.261 158.169 138.847 172.776C124.988 184.401 115.276 196.288 110.876 202.105C110.056 203.189 108.228 202.599 108.231 201.24Z" fill="url(#paint23_radial_1_5751)"/>
<path d="M110.048 139.725C126.375 104.498 161.968 73.9571 202.559 79.6085C203.238 79.6941 203.955 79.5115 204.62 79.6149C203.955 79.5124 203.237 79.6981 202.558 79.6137C162.699 75.0427 126.901 105.456 112.289 140.78C111.411 142.719 109.11 147.586 109.11 147.586L109.746 143.489C109.746 143.489 109.078 141.654 110.048 139.725Z" fill="url(#paint24_linear_1_5751)"/>
<path d="M109.986 138.846C126.312 103.619 161.277 73.9517 201.869 79.603C202.548 79.6887 203.264 79.5061 203.929 79.6095C203.264 79.507 202.546 79.6927 201.867 79.6083C161.145 74.0502 126.219 104.987 111.608 140.311C110.729 142.249 108.428 147.117 108.428 147.117L108.427 143.444C108.427 143.444 109.015 140.775 109.986 138.846Z" fill="url(#paint25_linear_1_5751)"/>
</mask>
<g mask="url(#mask0_1_5751)">
<g filter="url(#filter0_n_1_5751)">
<rect x="-10.0566" y="-3.97345" width="254.412" height="235.486" fill="url(#paint26_linear_1_5751)"/>
</g>
</g>
</g>
<g opacity="0.44" filter="url(#filter1_f_1_5751)">
<ellipse cx="108.602" cy="218.787" rx="39.2176" ry="6.03348" fill="#23271C" fill-opacity="0.24"/>
</g>
<defs>
<filter id="filter0_n_1_5751" x="-10.0566" y="-3.97345" width="254.412" height="235.486" filterUnits="userSpaceOnUse" color-interpolation-filters="sRGB">
<feFlood flood-opacity="0" result="BackgroundImageFix"/>
<feBlend mode="normal" in="SourceGraphic" in2="BackgroundImageFix" result="shape"/>
<feTurbulence type="fractalNoise" baseFrequency="3.3148341178894043 3.3148341178894043" stitchTiles="stitch" numOctaves="3" result="noise" seed="4622" />
<feColorMatrix in="noise" type="luminanceToAlpha" result="alphaNoise" />
<feComponentTransfer in="alphaNoise" result="coloredNoise1">
<feFuncA type="discrete" tableValues="1 1 1 1 1 1 1 1 1 1 1 1 1 1 1 1 1 1 1 1 1 1 1 1 1 1 1 1 1 1 1 1 1 1 1 1 1 1 1 1 1 1 1 1 1 1 1 1 1 1 1 0 0 0 0 0 0 0 0 0 0 0 0 0 0 0 0 0 0 0 0 0 0 0 0 0 0 0 0 0 0 0 0 0 0 0 0 0 0 0 0 0 0 0 0 0 0 0 0 0 "/>
</feComponentTransfer>
<feComposite operator="in" in2="shape" in="coloredNoise1" result="noise1Clipped" />
<feFlood flood-color="rgba(0, 0, 0, 0.25)" result="color1Flood" />
<feComposite operator="in" in2="noise1Clipped" in="color1Flood" result="color1" />
<feMerge result="effect1_noise_1_5751">
<feMergeNode in="shape" />
<feMergeNode in="color1" />
</feMerge>
</filter>
<filter id="filter1_f_1_5751" x="64.558" y="207.927" width="88.0891" height="21.7205" filterUnits="userSpaceOnUse" color-interpolation-filters="sRGB">
<feFlood flood-opacity="0" result="BackgroundImageFix"/>
<feBlend mode="normal" in="SourceGraphic" in2="BackgroundImageFix" result="shape"/>
<feGaussianBlur stdDeviation="2.41339" result="effect1_foregroundBlur_1_5751"/>
</filter>
<linearGradient id="paint0_linear_1_5751" x1="4.90232" y1="-4.13348" x2="107.396" y2="212.708" gradientUnits="userSpaceOnUse">
<stop stop-color="#F0F0F0"/>
<stop offset="1" stop-color="#686868"/>
</linearGradient>
<linearGradient id="paint1_linear_1_5751" x1="-12.5285" y1="14.7047" x2="101.15" y2="185.649" gradientUnits="userSpaceOnUse">
<stop stop-color="#F2F2F2"/>
<stop offset="0.226398" stop-color="#D4D4D4"/>
<stop offset="0.730106" stop-color="#404040"/>
<stop offset="1" stop-color="#343434"/>
</linearGradient>
<linearGradient id="paint2_linear_1_5751" x1="22.7944" y1="78.3942" x2="110.36" y2="191.342" gradientUnits="userSpaceOnUse">
<stop stop-color="#D0CFCF"/>
<stop offset="0.270601" stop-color="#D6D6D6"/>
<stop offset="1" stop-color="#888888"/>
</linearGradient>
<radialGradient id="paint3_radial_1_5751" cx="0" cy="0" r="1" gradientTransform="matrix(9.62361 105.043 78.9858 -7.12514 19.7843 85.6415)" gradientUnits="userSpaceOnUse">
<stop stop-color="#DBDBDB"/>
<stop offset="1" stop-color="#CBCBCA" stop-opacity="0"/>
</radialGradient>
<linearGradient id="paint4_linear_1_5751" x1="50.8255" y1="85.9288" x2="56.6013" y2="150.943" gradientUnits="userSpaceOnUse">
<stop stop-color="#C8C8C8"/>
<stop offset="1" stop-color="#828282"/>
</linearGradient>
<radialGradient id="paint5_radial_1_5751" cx="0" cy="0" r="1" gradientTransform="matrix(44.6808 102.999 -87.9872 37.5841 8.78207 68.5933)" gradientUnits="userSpaceOnUse">
<stop stop-color="white"/>
<stop offset="1" stop-color="#A5A5A5" stop-opacity="0"/>
</radialGradient>
<radialGradient id="paint6_radial_1_5751" cx="0" cy="0" r="1" gradientTransform="matrix(-50.8676 -26.6018 -119.367 224.745 210.349 52.231)" gradientUnits="userSpaceOnUse">
<stop stop-color="#3A3A3A"/>
<stop offset="1" stop-color="white"/>
</radialGradient>
<radialGradient id="paint7_radial_1_5751" cx="0" cy="0" r="1" gradientTransform="matrix(-26.8086 130.281 148.621 30.1126 138.859 34.4965)" gradientUnits="userSpaceOnUse">
<stop stop-color="white"/>
<stop offset="1" stop-color="#292929" stop-opacity="0.75"/>
</radialGradient>
<linearGradient id="paint8_linear_1_5751" x1="224.659" y1="13.1594" x2="85.7449" y2="169.752" gradientUnits="userSpaceOnUse">
<stop stop-color="#696969"/>
<stop offset="0.269894" stop-color="#868685"/>
<stop offset="0.773602" stop-color="#BBB9B9"/>
</linearGradient>
<linearGradient id="paint9_linear_1_5751" x1="189.344" y1="76.8488" x2="109.434" y2="190.411" gradientUnits="userSpaceOnUse">
<stop stop-color="#8A8888"/>
<stop offset="0.270601" stop-color="#666565"/>
<stop offset="1" stop-color="#424141"/>
</linearGradient>
<radialGradient id="paint10_radial_1_5751" cx="0" cy="0" r="1" gradientTransform="matrix(-9.74714 104.18 -78.3367 -7.2166 192.478 84.9594)" gradientUnits="userSpaceOnUse">
<stop stop-color="#898887"/>
<stop offset="1" stop-color="#646060" stop-opacity="0"/>
</radialGradient>
<linearGradient id="paint11_linear_1_5751" x1="108.603" y1="146.172" x2="157.785" y2="77.1723" gradientUnits="userSpaceOnUse">
<stop stop-color="#3B3B3B"/>
<stop offset="1" stop-color="#484848" stop-opacity="0"/>
</linearGradient>
<linearGradient id="paint12_linear_1_5751" x1="109.285" y1="142.084" x2="157.114" y2="77.1734" gradientUnits="userSpaceOnUse">
<stop stop-color="#DEDEDE"/>
<stop offset="1" stop-color="#999999"/>
</linearGradient>
<linearGradient id="paint13_linear_1_5751" x1="4.90232" y1="-4.13397" x2="107.396" y2="212.707" gradientUnits="userSpaceOnUse">
<stop stop-color="#F0F0F0"/>
<stop offset="1" stop-color="#686868"/>
</linearGradient>
<linearGradient id="paint14_linear_1_5751" x1="-12.5285" y1="14.7043" x2="101.15" y2="185.649" gradientUnits="userSpaceOnUse">
<stop stop-color="#F2F2F2"/>
<stop offset="0.226398" stop-color="#D4D4D4"/>
<stop offset="0.730106" stop-color="#404040"/>
<stop offset="1" stop-color="#343434"/>
</linearGradient>
<linearGradient id="paint15_linear_1_5751" x1="22.7944" y1="78.3946" x2="110.36" y2="191.343" gradientUnits="userSpaceOnUse">
<stop stop-color="#D0CFCF"/>
<stop offset="0.270601" stop-color="#D6D6D6"/>
<stop offset="1" stop-color="#888888"/>
</linearGradient>
<radialGradient id="paint16_radial_1_5751" cx="0" cy="0" r="1" gradientTransform="matrix(9.62361 105.043 78.9858 -7.12514 19.7843 85.6419)" gradientUnits="userSpaceOnUse">
<stop stop-color="#DBDBDB"/>
<stop offset="1" stop-color="#CBCBCA" stop-opacity="0"/>
</radialGradient>
<linearGradient id="paint17_linear_1_5751" x1="50.8255" y1="85.9282" x2="56.6013" y2="150.942" gradientUnits="userSpaceOnUse">
<stop stop-color="#C8C8C8"/>
<stop offset="1" stop-color="#828282"/>
</linearGradient>
<radialGradient id="paint18_radial_1_5751" cx="0" cy="0" r="1" gradientTransform="matrix(44.6808 102.999 -87.9872 37.5841 8.78207 68.5947)" gradientUnits="userSpaceOnUse">
<stop stop-color="white"/>
<stop offset="1" stop-color="#A5A5A5" stop-opacity="0"/>
</radialGradient>
<radialGradient id="paint19_radial_1_5751" cx="0" cy="0" r="1" gradientTransform="matrix(-50.8676 -26.6018 -119.367 224.745 210.349 52.2325)" gradientUnits="userSpaceOnUse">
<stop stop-color="#3A3A3A"/>
<stop offset="1" stop-color="white"/>
</radialGradient>
<radialGradient id="paint20_radial_1_5751" cx="0" cy="0" r="1" gradientTransform="matrix(-26.8086 130.281 148.621 30.1126 138.859 34.4979)" gradientUnits="userSpaceOnUse">
<stop stop-color="white"/>
<stop offset="1" stop-color="#292929" stop-opacity="0.75"/>
</radialGradient>
<linearGradient id="paint21_linear_1_5751" x1="224.659" y1="13.1599" x2="85.7449" y2="169.753" gradientUnits="userSpaceOnUse">
<stop stop-color="#696969"/>
<stop offset="0.269894" stop-color="#868685"/>
<stop offset="0.773602" stop-color="#BBB9B9"/>
</linearGradient>
<linearGradient id="paint22_linear_1_5751" x1="189.344" y1="76.8503" x2="109.434" y2="190.412" gradientUnits="userSpaceOnUse">
<stop stop-color="#8A8888"/>
<stop offset="0.270601" stop-color="#666565"/>
<stop offset="1" stop-color="#424141"/>
</linearGradient>
<radialGradient id="paint23_radial_1_5751" cx="0" cy="0" r="1" gradientTransform="matrix(-9.74714 104.18 -78.3367 -7.2166 192.478 84.9608)" gradientUnits="userSpaceOnUse">
<stop stop-color="#898887"/>
<stop offset="1" stop-color="#646060" stop-opacity="0"/>
</radialGradient>
<linearGradient id="paint24_linear_1_5751" x1="108.603" y1="146.172" x2="157.785" y2="77.1728" gradientUnits="userSpaceOnUse">
<stop stop-color="#3B3B3B"/>
<stop offset="1" stop-color="#484848" stop-opacity="0"/>
</linearGradient>
<linearGradient id="paint25_linear_1_5751" x1="109.285" y1="142.086" x2="157.114" y2="77.1749" gradientUnits="userSpaceOnUse">
<stop stop-color="#DEDEDE"/>
<stop offset="1" stop-color="#999999"/>
</linearGradient>
<linearGradient id="paint26_linear_1_5751" x1="111.116" y1="-36.8237" x2="111.116" y2="-6.88897" gradientUnits="userSpaceOnUse">
<stop stop-color="#C2F6B8" stop-opacity="0"/>
<stop offset="1" stop-color="#8A9E72"/>
</linearGradient>
</defs>
</svg>
